<?xml version="1.0" encoding="utf-8"?>
<!-- Generator: Adobe Illustrator 16.0.0, SVG Export Plug-In . SVG Version: 6.00 Build 0)  -->
<!DOCTYPE svg PUBLIC "-//W3C//DTD SVG 1.1//EN" "http://www.w3.org/Graphics/SVG/1.1/DTD/svg11.dtd">
<svg version="1.1" id="Layer_1" xmlns="http://www.w3.org/2000/svg" xmlns:xlink="http://www.w3.org/1999/xlink" x="0px" y="0px"
	 width="612px" height="92.332px" viewBox="0 426.534 612 92.332" enable-background="new 0 426.534 612 92.332"
	 xml:space="preserve">
<g>
	<g>
		<path fill="#2F282A" d="M111.805,432.929v81.853H96.871v-81.853H111.805z"/>
		<path fill="#2F282A" d="M123.109,473.195c0-6.767-0.083-12.542-0.495-17.575h13.119l0.743,8.828h0.33
			c2.558-4.62,8.994-10.231,18.813-10.231c10.314,0,21.041,6.684,21.041,25.414v35.068h-14.935v-33.418
			c0-8.499-3.135-14.935-11.304-14.935c-5.941,0-10.066,4.29-11.634,8.746c-0.495,1.32-0.578,3.136-0.578,4.868v34.738h-15.1
			V473.195z"/>
		<path fill="#2F282A" d="M185.902,501.002c3.383,2.062,9.819,4.291,15.182,4.291c6.519,0,9.489-2.641,9.489-6.519
			c0-4.043-2.393-6.106-9.737-8.664c-11.552-4.043-16.42-10.314-16.255-17.245c0-10.479,8.664-18.565,22.361-18.565
			c6.519,0,12.294,1.732,15.678,3.548l-2.888,10.562c-2.558-1.485-7.261-3.383-12.542-3.383c-5.363,0-8.251,2.558-8.251,6.188
			c0,3.796,2.806,5.611,10.314,8.251c10.727,3.878,15.677,9.324,15.76,18.07c0,10.728-8.416,18.483-24.011,18.483
			c-7.179,0-13.615-1.732-17.988-4.126L185.902,501.002z"/>
		<path fill="#2F282A" d="M247.292,439.117c0,4.456-3.301,8.004-8.499,8.004c-4.951,0-8.251-3.548-8.251-8.004
			c0-4.621,3.383-8.169,8.417-8.169S247.127,434.496,247.292,439.117z M231.367,514.781V455.62h15.1v59.161H231.367z"/>
		<path fill="#2F282A" d="M310.992,428.556v69.559c0,6.105,0.247,12.624,0.495,16.667H298.12l-0.578-9.323h-0.248
			c-3.548,6.519-10.727,10.727-19.308,10.727c-14.11,0-25.249-12.047-25.249-30.282c-0.083-19.804,12.294-31.603,26.487-31.603
			c8.168,0,13.944,3.383,16.667,7.756h0.248v-33.5H310.992z M296.057,480.291c0-1.237-0.083-2.641-0.33-3.878
			c-1.32-5.858-6.106-10.562-12.872-10.562c-9.571,0-14.935,8.499-14.935,19.556c0,10.809,5.364,18.73,14.853,18.73
			c6.106,0,11.387-4.126,12.872-10.562c0.33-1.32,0.495-2.806,0.495-4.373v-8.912H296.057z"/>
		<path fill="#2F282A" d="M331.703,489.367c0.33,10.728,8.746,15.266,18.235,15.266c6.931,0,11.882-0.99,16.42-2.641l2.228,10.314
			c-5.115,2.062-12.129,3.63-20.628,3.63c-19.226,0-30.447-11.799-30.447-29.869c0-16.42,9.984-31.851,28.88-31.851
			c19.225,0,25.496,15.761,25.496,28.797c0,2.806-0.247,4.951-0.495,6.354H331.703z M357.694,478.889
			c0.083-5.446-2.311-14.439-12.294-14.439c-9.242,0-13.12,8.416-13.697,14.439H357.694z"/>
		<path fill="#2F282A" d="M393.34,514.781l-26.486-81.853h16.255l11.14,37.131c3.135,10.314,5.858,19.886,8.004,29.87h0.247
			c2.228-9.737,5.116-19.639,8.416-29.622l11.882-37.379h15.926l-28.303,81.853H393.34z"/>
		<path fill="#2F282A" d="M469.747,514.781l-0.99-6.518h-0.33c-3.63,4.62-9.818,7.921-17.492,7.921
			c-11.882,0-18.565-8.664-18.565-17.575c0-14.936,13.202-22.443,35.067-22.361v-0.99c0-3.878-1.567-10.314-12.047-10.314
			c-5.858,0-11.882,1.815-15.925,4.374l-2.888-9.737c4.373-2.64,12.047-5.198,21.371-5.198c18.978,0,24.424,12.047,24.424,24.919
			v21.371c0,5.363,0.247,10.562,0.825,14.192h-13.45V514.781z M467.85,485.819c-10.562-0.247-20.628,2.063-20.628,11.057
			c0,5.858,3.795,8.499,8.498,8.499c5.941,0,10.314-3.878,11.635-8.169c0.33-1.072,0.495-2.31,0.495-3.3V485.819L467.85,485.819z"/>
		<path fill="#2F282A" d="M545.164,497.041c0,7.014,0.248,12.872,0.495,17.74H532.54l-0.743-8.993h-0.247
			c-2.558,4.29-8.417,10.313-18.979,10.313c-10.809,0-20.628-6.436-20.628-25.744V455.62h14.935v32.18
			c0,9.819,3.136,16.173,11.057,16.173c5.941,0,9.819-4.291,11.388-8.004c0.494-1.32,0.824-2.888,0.824-4.621V455.62h14.936v41.421
			H545.164z"/>
		<path fill="#2F282A" d="M555.396,428.556h15.101v86.226h-15.101V428.556z"/>
		<path fill="#2F282A" d="M597.808,438.705v16.915H612v11.139h-14.192v26.074c0,7.179,1.98,10.892,7.674,10.892
			c2.558,0,4.456-0.33,5.858-0.742l0.247,11.387c-2.145,0.825-6.105,1.485-10.809,1.485c-5.446,0-10.066-1.815-12.872-4.868
			c-3.136-3.383-4.621-8.746-4.621-16.503v-27.807h-8.499v-11.14h8.499v-13.284L597.808,438.705z"/>
	</g>
	<g>
		<g>
			<path fill="#0EBBE6" d="M77.562,445.966l-31.272-18.07c-3.053-1.815-6.931-1.815-9.984,0l-31.272,18.07
				C1.98,447.781,0,451.082,0,454.63v36.141c0,3.548,1.898,6.849,5.033,8.664l31.272,18.07c3.053,1.815,6.931,1.815,9.984,0
				l31.272-18.07c3.053-1.815,5.033-5.116,5.033-8.664V454.63C82.596,451.082,80.698,447.781,77.562,445.966z M72.529,481.199
				c0,2.888-1.155,5.61-3.136,7.674l-11.964,11.964c-2.063,2.062-4.786,3.136-7.674,3.136H32.84c-2.888,0-5.611-1.155-7.674-3.136
				L13.202,488.79c-2.063-2.062-3.136-4.786-3.136-7.674v-16.915c0-2.888,1.155-5.611,3.136-7.674l11.964-11.964
				c2.063-2.063,4.786-3.136,7.674-3.136h16.915c2.888,0,5.611,1.155,7.674,3.136l11.964,11.964
				c2.063,2.062,3.136,4.786,3.136,7.674V481.199z"/>
		</g>
		<g>
			<g>
				<path fill="#008BC7" d="M41.256,468.739l20.133-9.984c-0.165-0.165-0.413-0.247-0.578-0.412l-16.833-9.736
					c-1.65-0.99-3.713-0.99-5.363,0l-16.833,9.736c-0.248,0.165-0.413,0.247-0.66,0.412L41.256,468.739z"/>
			</g>
			<g>
				<path fill="#004466" d="M42.329,470.555v26.816c0.578-0.082,1.155-0.33,1.65-0.577l16.833-9.736
					c1.65-0.99,2.723-2.724,2.723-4.621v-19.391c0-0.907-0.248-1.815-0.66-2.641L42.329,470.555z"/>
			</g>
			<g>
				<path fill="#0EBBE6" d="M40.267,470.555l-20.463-10.066c-0.413,0.742-0.66,1.65-0.66,2.558v19.391
					c0,1.897,0.99,3.713,2.723,4.621l16.833,9.736c0.495,0.33,1.073,0.495,1.65,0.577v-26.816H40.267z"/>
			</g>
		</g>
	</g>
</g>
</svg>
